<svg width="30" height="30" viewBox="0 0 30 30" fill="none" xmlns="http://www.w3.org/2000/svg">
<path d="M7 4.5H23C23.8081 4.5 24.5 5.1906 24.5 6.09082V6.11719L24.5029 6.14355L26.4561 24.5186L26.458 24.542L26.4629 24.5654C26.4866 24.6826 26.5 24.7962 26.5 24.9092C26.5 25.8094 25.8081 26.5 25 26.5H5C4.19188 26.5 3.50005 25.8094 3.5 24.9092C3.5 24.8525 3.50344 24.7956 3.50977 24.7383L3.53711 24.5654L3.54199 24.542L3.54395 24.5186L5.49707 6.14355L5.5 6.11719V6.09082C5.50005 5.1906 6.19188 4.5 7 4.5ZM19.5 5.59082C18.3751 5.59082 17.5 6.53858 17.5 7.65918V10.2725C17.5 11.7467 16.3571 12.9092 15 12.9092C13.6429 12.9092 12.5 11.7467 12.5 10.2725V7.65918C12.5 6.53858 11.6249 5.59082 10.5 5.59082C9.37514 5.59082 8.5 6.53858 8.5 7.65918C8.50003 8.41778 8.89966 9.08275 9.5 9.44141V10.2725C9.5 13.4097 11.9461 16 15 16C18.0539 16 20.5 13.4097 20.5 10.2725V9.44141C21.1003 9.08275 21.5 8.41778 21.5 7.65918C21.5 6.53858 20.6249 5.59082 19.5 5.59082Z" stroke="#9B9B9B"/>
</svg>
